<?xml version="1.0" standalone="no"?>
<!DOCTYPE svg PUBLIC "-//W3C//DTD SVG 20010904//EN"
 "http://www.w3.org/TR/2001/REC-SVG-20010904/DTD/svg10.dtd">
<svg version="1.0" xmlns="http://www.w3.org/2000/svg"
 width="293.000000pt" height="73.000000pt" viewBox="0 0 293.000000 73.000000"
 preserveAspectRatio="xMidYMid meet">

<g transform="translate(0.000000,73.000000) scale(0.100000,-0.100000)"
fill="#000000" stroke="none">
<path d="M510 504 c0 -3 14 -10 31 -16 l32 -11 -24 -13 -24 -13 25 0 c48 0 75
-7 98 -22 12 -9 19 -19 15 -22 -3 -4 -1 -7 5 -7 13 0 14 1 18 48 1 17 -2 32
-8 32 -6 0 -7 -13 -3 -32 l6 -33 -20 33 c-12 18 -21 37 -21 42 0 6 -4 10 -10
10 -14 0 -13 -13 2 -28 6 -6 9 -14 6 -17 -3 -4 -16 8 -28 24 -12 17 -26 31
-32 31 -6 0 -4 -8 5 -18 10 -10 14 -22 10 -25 -10 -10 -25 -8 -19 2 3 5 -5 16
-19 25 -24 16 -45 21 -45 10z m104 -42 c3 -5 -1 -9 -9 -9 -8 0 -12 4 -9 9 3 4
7 8 9 8 2 0 6 -4 9 -8z"/>
<path d="M379 472 c-24 -16 -53 -40 -64 -53 l-20 -24 22 18 c26 23 43 15 44
-21 1 -20 2 -22 6 -7 2 11 6 30 9 43 6 28 58 53 106 51 l33 -2 -35 -7 c-34 -7
-34 -7 -5 -8 17 0 39 3 49 7 16 6 11 10 -26 19 -64 16 -68 16 -119 -16z"/>
<path d="M400 435 c-30 -32 -19 -44 16 -16 15 11 34 21 43 21 14 0 14 2 1 10
-23 15 -35 12 -60 -15z m39 12 c-2 -1 -15 -11 -29 -22 l-25 -20 19 23 c11 12
24 22 29 22 6 0 8 -1 6 -3z"/>
<path d="M709 408 c-1 -37 -2 -39 -9 -18 -7 21 -8 21 -9 5 0 -11 3 -27 8 -34
8 -12 11 -8 16 15 3 16 10 36 15 45 5 9 6 20 3 23 -15 15 -23 3 -24 -36z"/>
<path d="M306 378 c-9 -13 -15 -40 -14 -63 l1 -40 4 37 c6 50 27 67 55 42 22
-19 21 -19 -1 14 -12 17 -24 32 -26 32 -2 0 -11 -10 -19 -22z"/>
<path d="M721 353 c-10 -21 -33 -51 -50 -67 -46 -44 -41 -60 15 -53 42 4 45 3
30 -11 -9 -9 -39 -17 -76 -20 -50 -4 -61 -2 -66 13 -7 17 -2 24 43 51 10 7
-10 3 -44 -9 -35 -11 -63 -25 -63 -32 0 -27 33 -40 101 -40 53 0 73 4 96 21
15 12 28 25 28 30 1 5 9 24 18 42 20 36 20 103 0 109 -7 3 -21 -13 -32 -34z"/>
<path d="M2020 370 c0 -5 5 -10 10 -10 6 0 10 5 10 10 0 6 -4 10 -10 10 -5 0
-10 -4 -10 -10z"/>
<path d="M2066 371 c-3 -5 4 -12 17 -16 l22 -7 -25 -8 c-22 -6 -23 -8 -7 -15
25 -11 21 -23 -10 -28 -24 -3 -23 -4 7 -5 34 -2 35 -1 37 38 2 25 -1 39 -7 35
-6 -3 -10 -1 -10 4 0 13 -17 14 -24 2z"/>
<path d="M2141 333 c-1 -27 2 -43 10 -43 7 0 10 11 7 30 -3 17 -1 33 4 36 13
8 10 21 -5 21 -9 0 -14 -16 -16 -44z"/>
<path d="M2180 367 c0 -5 9 -7 20 -4 23 6 29 -1 32 -37 1 -14 6 -26 11 -26 11
0 5 52 -8 65 -12 13 -55 14 -55 2z"/>
<path d="M2281 310 c1 -38 5 -67 10 -64 12 7 11 134 -1 134 -6 0 -9 -29 -9
-70z"/>
<path d="M2336 368 c3 -5 25 -8 50 -8 24 0 44 -4 44 -10 0 -5 -18 -10 -39 -10
-49 0 -71 -8 -71 -26 0 -16 39 -28 67 -21 10 3 4 5 -14 6 -37 1 -46 20 -10 22
56 3 81 -6 57 -21 -12 -8 -10 -10 8 -10 18 0 22 5 22 34 0 18 -6 38 -12 44
-15 11 -109 11 -102 0z"/>
<path d="M2474 364 c3 -9 6 -28 6 -43 0 -28 0 -28 68 -27 l67 1 3 43 c2 25 -1
42 -7 42 -6 0 -11 -18 -11 -40 0 -43 0 -43 -24 -34 -10 4 -16 18 -16 41 0 20
-4 32 -10 28 -5 -3 -10 -17 -10 -30 0 -14 -8 -29 -19 -34 -16 -9 -19 -6 -25
29 -3 22 -11 40 -17 40 -6 0 -8 -7 -5 -16z"/>
<path d="M2655 371 c3 -6 26 -11 51 -11 24 0 44 -4 44 -10 0 -5 -19 -10 -42
-10 -51 0 -73 -12 -65 -34 5 -12 21 -16 67 -16 l61 0 -3 43 -3 42 -58 3 c-39
2 -57 0 -52 -7z m95 -61 c0 -5 -18 -10 -39 -10 -22 0 -43 5 -46 10 -4 6 12 10
39 10 25 0 46 -4 46 -10z"/>
<path d="M1943 333 c-1 -33 0 -35 7 -13 11 35 11 50 2 50 -5 0 -9 -17 -9 -37z"/>
<path d="M1880 340 c0 -11 2 -20 4 -20 2 0 6 9 9 20 3 11 1 20 -4 20 -5 0 -9
-9 -9 -20z"/>
<path d="M317 333 c-34 -33 37 -150 94 -158 13 -1 33 -6 44 -10 11 -4 5 2 -12
14 -18 11 -41 18 -50 15 -15 -5 -16 -4 -3 5 12 8 12 13 2 23 -17 17 -15 45 6
57 14 9 11 10 -15 11 -37 0 -44 -22 -18 -56 20 -26 19 -40 -2 -23 -9 8 -22 29
-30 47 -17 41 -3 66 31 56 21 -6 21 -6 1 10 -22 17 -38 20 -48 9z"/>
<path d="M1890 306 c0 -2 7 -7 16 -10 8 -3 12 -2 9 4 -6 10 -25 14 -25 6z"/>
<path d="M415 249 c-16 -26 76 -90 127 -89 17 1 12 5 -16 15 -72 25 -88 69
-29 78 16 2 6 5 -24 6 -28 0 -55 -4 -58 -10z"/>
<path d="M603 163 c9 -2 23 -2 30 0 6 3 -1 5 -18 5 -16 0 -22 -2 -12 -5z"/>
</g>
</svg>
