<?xml version="1.0" standalone="no"?>
<!DOCTYPE svg PUBLIC "-//W3C//DTD SVG 20010904//EN"
 "http://www.w3.org/TR/2001/REC-SVG-20010904/DTD/svg10.dtd">
<svg version="1.0" xmlns="http://www.w3.org/2000/svg"
 width="305.000000pt" height="225.000000pt" viewBox="0 0 305.000000 225.000000"
 preserveAspectRatio="xMidYMid meet">

<g transform="translate(0.000000,225.000000) scale(0.100000,-0.100000)"
fill="#000000" stroke="none">
<path d="M1608 2233 c6 -2 18 -2 25 0 6 3 1 5 -13 5 -14 0 -19 -2 -12 -5z"/>
<path d="M1431 2219 c-62 -12 -76 -20 -21 -12 25 3 74 9 110 13 l65 7 -55 0
c-30 1 -75 -3 -99 -8z"/>
<path d="M1721 2220 c41 -5 106 -16 144 -25 37 -8 70 -14 72 -12 9 10 -136 38
-211 42 l-81 4 76 -9z"/>
<path d="M1338 2193 c7 -3 16 -2 19 1 4 3 -2 6 -13 5 -11 0 -14 -3 -6 -6z"/>
<path d="M1265 2175 c-39 -17 -21 -18 25 0 19 7 28 14 20 14 -8 0 -28 -6 -45
-14z"/>
<path d="M1426 2175 c-214 -44 -389 -137 -538 -286 -267 -267 -367 -654 -262
-1017 100 -347 383 -622 734 -713 119 -31 323 -37 445 -14 505 94 870 556 842
1064 -25 460 -333 834 -782 953 -104 27 -337 34 -439 13z m80 -579 c16 -13 21
-12 36 1 26 23 78 8 78 -22 0 -18 7 -25 29 -30 38 -8 55 -45 34 -74 -13 -20
-13 -24 1 -40 25 -28 12 -67 -25 -75 -23 -4 -29 -11 -29 -31 0 -37 -42 -55
-70 -30 -19 17 -21 17 -39 1 -25 -23 -67 -12 -75 19 -4 14 -18 27 -35 33 -33
12 -49 46 -30 68 9 12 9 20 -1 39 -17 32 -6 75 20 75 13 0 24 10 31 28 9 25
35 52 49 52 3 0 15 -6 26 -14z m271 -261 c3 -9 13 -15 23 -13 24 4 49 -19 43
-41 -3 -11 2 -21 11 -24 21 -8 20 -43 -1 -55 -9 -6 -14 -16 -10 -25 7 -19 -25
-49 -45 -42 -9 4 -18 -1 -21 -9 -8 -20 -53 -21 -60 -2 -4 9 -14 12 -26 9 -22
-6 -45 26 -35 50 3 8 -2 17 -10 20 -20 8 -21 46 -1 53 10 4 13 13 9 26 -6 21
21 49 41 41 7 -2 18 3 25 12 16 19 49 19 57 0z m-387 -340 l0 -75 -40 0 c-34
0 -41 4 -46 25 -11 42 3 75 31 75 20 0 25 5 25 25 0 16 6 25 15 25 12 0 15
-15 15 -75z m150 0 c0 -60 -3 -75 -15 -75 -12 0 -15 15 -15 75 0 60 3 75 15
75 12 0 15 -15 15 -75z m-520 50 c0 -9 -9 -15 -25 -15 -16 0 -25 -6 -25 -15 0
-8 9 -15 20 -15 11 0 20 -4 20 -10 0 -5 -9 -10 -20 -10 -16 0 -20 -7 -20 -30
0 -20 -5 -30 -15 -30 -12 0 -15 14 -15 70 l0 70 40 0 c29 0 40 -4 40 -15z
m950 0 c0 -8 -9 -15 -20 -15 -11 0 -20 7 -20 15 0 8 9 15 20 15 11 0 20 -7 20
-15z m-880 -40 c0 -8 -7 -15 -15 -15 -10 0 -15 -11 -15 -35 0 -24 -5 -35 -15
-35 -11 0 -15 12 -15 50 0 49 1 50 30 50 20 0 30 -5 30 -15z m84 -1 c3 -9 6
-31 6 -50 0 -33 -1 -34 -39 -34 -22 0 -41 5 -44 13 -7 20 12 47 34 47 11 0 18
4 15 9 -3 5 -15 7 -26 4 -14 -4 -20 0 -20 11 0 22 65 22 74 0z m106 -34 c0
-38 -4 -50 -15 -50 -11 0 -15 11 -15 40 0 22 -4 40 -10 40 -5 0 -10 -18 -10
-40 0 -29 -4 -40 -15 -40 -11 0 -15 12 -15 50 l0 50 40 0 40 0 0 -50z m204 34
c12 -31 6 -44 -19 -44 -14 0 -25 -5 -25 -11 0 -5 8 -9 18 -7 9 1 19 -2 22 -7
3 -6 -10 -11 -27 -13 -27 -3 -35 1 -45 22 -17 39 3 76 41 76 17 0 31 -6 35
-16z m137 -6 l0 -23 11 23 c12 25 38 30 38 7 0 -8 5 -15 10 -15 6 0 10 7 10
15 0 8 7 15 16 15 12 0 15 -6 10 -22 -4 -13 -9 -35 -12 -50 -8 -34 -31 -37
-43 -6 l-8 23 -7 -23 c-12 -36 -34 -26 -47 21 -6 23 -13 45 -16 50 -2 4 5 7
16 7 15 0 21 -7 22 -22z m187 -30 l3 -48 -41 0 c-39 0 -41 1 -38 28 2 19 9 28
26 30 12 2 20 7 17 12 -3 4 -14 6 -25 3 -14 -4 -20 0 -20 11 0 14 8 17 38 14
37 -3 37 -3 40 -50z m102 2 c0 -38 -4 -50 -15 -50 -11 0 -15 11 -15 41 0 24
-4 38 -10 34 -5 -3 -10 -22 -10 -41 0 -24 -5 -34 -15 -34 -11 0 -15 12 -15 50
l0 50 40 0 40 0 0 -50z m60 -9 c0 -41 -5 -65 -16 -75 -24 -25 -29 -13 -26 63
3 62 6 71 23 71 17 0 19 -8 19 -59z m88 7 l3 -46 -38 1 c-31 2 -38 6 -38 22 0
11 11 25 25 32 14 7 21 13 15 14 -5 1 -14 2 -20 4 -5 1 -14 3 -18 3 -5 1 -5 7
-2 13 4 5 21 9 38 7 30 -3 32 -5 35 -50z m42 37 c0 -8 5 -15 10 -15 6 0 10 7
10 15 0 26 28 17 38 -12 l10 -28 1 27 c1 26 2 27 59 25 l57 -2 3 -48 3 -48
-38 3 c-33 3 -38 6 -38 28 0 18 6 26 23 28 12 2 20 8 16 13 -3 5 -10 7 -15 3
-5 -3 -16 -1 -23 5 -11 9 -16 2 -26 -34 -14 -51 -36 -59 -47 -17 l-7 27 -6
-25 c-8 -36 -36 -38 -43 -3 -4 15 -9 38 -13 51 -5 16 -2 22 10 22 9 0 16 -7
16 -15z m-1104 -187 c5 -7 2 -9 -8 -5 -26 10 -30 -5 -7 -29 12 -13 19 -30 16
-38 -8 -21 -43 -21 -51 0 -4 12 -1 14 14 9 25 -8 25 0 0 25 -11 11 -17 26 -14
35 7 18 40 20 50 3z m79 -10 c25 -22 33 -62 15 -73 -6 -3 -10 5 -10 19 0 14
-4 28 -10 31 -6 4 -10 -7 -10 -24 0 -17 -4 -31 -10 -31 -5 0 -10 23 -10 50 0
28 2 50 5 50 3 0 16 -10 30 -22z m84 -32 c1 -27 -2 -46 -9 -46 -5 0 -10 22
-10 51 0 62 15 58 19 -5z m158 -1 c0 -46 -16 -65 -18 -20 -3 68 -2 78 10 71 4
-3 8 -26 8 -51z m321 35 c7 -12 8 -20 2 -20 -5 0 -10 -9 -10 -20 0 -11 5 -20
10 -20 6 0 10 -5 10 -11 0 -6 -8 -9 -17 -7 -19 3 -32 49 -25 81 6 22 14 22 30
-3z m82 0 c11 -11 20 -33 20 -50 0 -41 -20 -38 -22 3 l-1 32 -4 -32 c-7 -51
-23 -39 -23 17 0 28 2 50 5 50 3 0 14 -9 25 -20z m230 -30 c0 -27 -4 -50 -10
-50 -5 0 -10 23 -10 50 0 28 5 50 10 50 6 0 10 -22 10 -50z m69 -4 c1 -25 -2
-46 -8 -46 -9 0 -20 87 -12 95 10 11 17 -8 20 -49z m151 39 c0 -8 3 -14 8 -14
25 4 32 -4 32 -36 0 -19 -4 -35 -10 -35 -5 0 -10 14 -10 30 0 17 -4 30 -10 30
-5 0 -10 -13 -10 -30 0 -16 -4 -30 -10 -30 -5 0 -10 23 -10 50 0 28 5 50 10
50 6 0 10 -7 10 -15z m108 -2 c12 -12 13 -18 4 -21 -16 -5 -16 -39 1 -45 6 -2
9 -8 5 -12 -4 -4 -14 -5 -23 -2 -10 5 -15 20 -15 52 0 50 3 53 28 28z m-1031
-15 c10 -17 12 -58 3 -63 -4 -3 -11 10 -16 28 l-8 32 -3 -32 c-6 -47 -23 -41
-23 7 0 33 3 40 19 40 11 0 23 -6 28 -12z m161 -30 c2 -22 -1 -38 -7 -38 -6 0
-12 15 -13 33 l-1 32 -4 -32 c-6 -47 -23 -41 -23 8 0 36 2 40 23 37 18 -2 23
-10 25 -40z m100 -6 c-3 -42 -5 -47 -28 -47 -21 0 -25 5 -28 39 -4 41 3 51 38
53 19 2 21 -3 18 -45z m315 34 c22 -22 10 -68 -17 -64 -25 4 -36 56 -14 69 17
11 14 11 31 -5z m287 -38 c0 -45 -2 -48 -25 -48 -23 0 -25 4 -25 43 0 49 4 56
31 54 16 -1 19 -9 19 -49z"/>
<path d="M1512 1499 c-35 -13 -48 -53 -29 -83 36 -54 107 -36 107 28 0 47 -34
71 -78 55z"/>
<path d="M1714 1256 c-3 -8 -4 -25 -2 -38 2 -18 9 -23 32 -23 36 0 56 27 40
53 -14 22 -62 28 -70 8z"/>
<path d="M1334 986 c-8 -21 3 -49 16 -41 5 3 10 15 10 25 0 25 -18 36 -26 16z"/>
<path d="M1130 949 c0 -5 5 -7 10 -4 6 3 10 8 10 11 0 2 -4 4 -10 4 -5 0 -10
-5 -10 -11z"/>
<path d="M1435 990 c-3 -5 1 -10 9 -10 9 0 16 5 16 10 0 6 -4 10 -9 10 -6 0
-13 -4 -16 -10z"/>
<path d="M1760 949 c0 -5 5 -7 10 -4 6 3 10 8 10 11 0 2 -4 4 -10 4 -5 0 -10
-5 -10 -11z"/>
<path d="M2010 949 c0 -5 5 -7 10 -4 6 3 10 8 10 11 0 2 -4 4 -10 4 -5 0 -10
-5 -10 -11z"/>
<path d="M2240 949 c0 -5 5 -7 10 -4 6 3 10 8 10 11 0 2 -4 4 -10 4 -5 0 -10
-5 -10 -11z"/>
<path d="M1470 770 c0 -11 5 -20 10 -20 6 0 10 9 10 20 0 11 -4 20 -10 20 -5
0 -10 -9 -10 -20z"/>
<path d="M2082 770 c0 -14 2 -19 5 -12 2 6 2 18 0 25 -3 6 -5 1 -5 -13z"/>
<path d="M1970 2169 c272 -124 355 -188 535 -414 33 -41 0 12 -40 65 -58 76
-167 176 -251 233 -73 48 -199 111 -244 121 l-25 6 25 -11z"/>
<path d="M1102 2103 c-170 -96 -324 -245 -411 -397 -22 -39 -43 -80 -46 -91
-4 -11 12 14 36 55 57 101 112 170 205 261 87 83 136 119 246 179 40 22 69 40
63 40 -5 0 -47 -21 -93 -47z"/>
<path d="M2558 1660 c21 -41 46 -93 55 -115 9 -22 14 -29 11 -15 -7 33 -67
159 -88 185 -9 11 1 -14 22 -55z"/>
<path d="M611 1539 c-6 -18 -9 -34 -7 -36 2 -2 9 10 15 28 6 18 9 34 7 36 -2
2 -9 -10 -15 -28z"/>
<path d="M576 1432 c-9 -32 -18 -87 -21 -122 -5 -64 -5 -64 9 15 7 44 19 97
25 118 7 21 11 40 8 43 -2 2 -12 -22 -21 -54z"/>
<path d="M2641 1454 c0 -11 3 -14 6 -6 3 7 2 16 -1 19 -3 4 -6 -2 -5 -13z"/>
<path d="M2653 1410 c22 -96 29 -178 25 -304 -2 -79 -1 -123 3 -101 20 101 0
399 -27 424 -4 3 -4 -5 -1 -19z"/>
<path d="M543 1165 c0 -44 2 -61 4 -37 2 23 2 59 0 80 -2 20 -4 1 -4 -43z"/>
<path d="M555 1009 c3 -36 12 -85 20 -110 8 -24 12 -30 9 -14 -4 17 -13 66
-20 110 l-14 80 5 -66z"/>
<path d="M2656 924 c-4 -20 -5 -38 -3 -40 3 -3 8 11 11 32 4 20 5 38 3 40 -3
3 -8 -11 -11 -32z"/>
<path d="M610 785 c0 -5 5 -17 10 -25 5 -8 10 -10 10 -5 0 6 -5 17 -10 25 -5
8 -10 11 -10 5z"/>
<path d="M2586 716 c-87 -201 -263 -386 -476 -500 -91 -49 -103 -63 -17 -20
153 77 286 189 389 327 55 75 146 242 137 252 -3 2 -17 -24 -33 -59z"/>
<path d="M630 737 c0 -15 52 -112 98 -180 58 -88 140 -177 216 -234 l61 -45
-55 48 c-133 118 -205 205 -274 334 -25 47 -46 81 -46 77z"/>
<path d="M1015 272 c14 -15 167 -102 180 -102 5 0 -17 15 -50 33 -33 18 -78
43 -100 56 -22 13 -35 19 -30 13z"/>
<path d="M1980 158 c-58 -23 -167 -49 -248 -58 l-87 -9 85 4 c84 4 191 28 260
58 39 17 30 22 -10 5z"/>
<path d="M1251 151 c33 -22 168 -52 249 -56 l85 -4 -82 9 c-70 7 -166 29 -248
55 -16 5 -17 5 -4 -4z"/>
<path d="M1608 83 c6 -2 18 -2 25 0 6 3 1 5 -13 5 -14 0 -19 -2 -12 -5z"/>
</g>
</svg>
